<?xml version="1.0" standalone="no"?>
<!DOCTYPE svg PUBLIC "-//W3C//DTD SVG 20010904//EN"
 "http://www.w3.org/TR/2001/REC-SVG-20010904/DTD/svg10.dtd">
<svg version="1.0" xmlns="http://www.w3.org/2000/svg"
 width="2003.000000pt" height="1416.000000pt" viewBox="0 0 2003.000000 1416.000000"
 preserveAspectRatio="xMidYMid meet">

<g transform="translate(0.000000,1416.000000) scale(0.100000,-0.100000)"
fill="white" stroke="none">
<path d="M9350 12919 c-1651 -120 -3131 -983 -4045 -2359 -199 -299 -369 -623
-503 -961 -65 -163 -152 -416 -152 -443 0 -8 61 -11 208 -11 114 0 254 -4 312
-8 l105 -8 64 123 c358 688 959 1307 1701 1753 179 107 535 283 735 363 1545
617 3343 511 4715 -278 583 -336 1080 -788 1424 -1297 l83 -123 54 41 c84 63
223 147 333 200 55 27 101 51 104 53 6 7 -118 239 -206 386 -239 398 -462 682
-806 1026 -228 227 -361 343 -576 504 -818 609 -1778 965 -2805 1040 -162 11
-577 11 -745 -1z"/>
<path d="M16000 10538 c-228 -21 -416 -40 -417 -42 -2 -2 -38 -205 -81 -451
l-77 -449 -100 3 c-258 6 -556 -70 -797 -205 -445 -249 -773 -709 -918 -1284
-60 -239 -85 -447 -77 -659 9 -252 60 -407 174 -529 142 -151 339 -209 649
-190 300 18 538 134 722 350 l31 38 47 -50 c98 -104 206 -150 357 -150 90 0
365 24 373 33 2 2 11 96 19 208 9 112 22 263 31 334 11 97 487 2891 520 3058
7 33 63 35 -456 -15z m-698 -1576 c8 -8 -19 -182 -101 -658 -124 -717 -121
-705 -215 -800 -107 -107 -270 -158 -390 -122 -167 50 -209 321 -119 768 59
295 164 527 298 663 123 123 238 169 413 164 58 -2 108 -9 114 -15z"/>
<path d="M2452 9766 c-656 -62 -1196 -117 -1200 -122 -12 -13 -726 -4154 -718
-4161 5 -6 896 73 902 80 2 1 64 360 140 797 75 437 140 798 143 802 4 5 173
24 376 43 204 19 397 42 430 51 89 23 213 87 288 150 114 94 201 222 246 364
21 68 85 422 79 443 -2 10 -143 0 -627 -45 -343 -32 -626 -57 -628 -55 -4 5
112 675 118 681 2 2 279 29 614 60 336 31 639 63 675 71 112 26 213 111 259
218 12 27 44 185 76 369 30 178 57 333 60 346 4 18 1 22 -17 21 -13 -1 -560
-52 -1216 -113z"/>
<path d="M17789 9835 c-563 -91 -1033 -447 -1280 -970 -178 -378 -258 -892
-193 -1239 56 -296 220 -495 476 -581 323 -107 778 -52 1140 138 522 274 875
822 972 1507 55 393 6 689 -148 889 -86 111 -231 200 -398 242 -108 28 -435
36 -569 14z m96 -645 c81 -50 115 -148 115 -337 0 -175 -33 -412 -86 -628 -76
-301 -172 -469 -316 -545 -53 -28 -76 -34 -143 -38 -70 -3 -86 -1 -125 20
-117 63 -153 244 -115 578 75 647 275 994 567 977 46 -3 77 -11 103 -27z"/>
<path d="M12635 9354 c-256 -46 -490 -170 -674 -357 l-63 -65 -69 58 c-78 65
-182 120 -279 146 -75 20 -303 25 -321 7 -13 -13 -40 -166 -294 -1636 -98
-565 -176 -1029 -174 -1031 4 -4 872 73 875 78 1 0 67 386 148 856 81 470 156
886 168 923 37 121 137 246 238 297 58 29 170 52 221 44 52 -9 96 -45 109 -92
26 -94 27 -89 -199 -1392 -55 -316 -98 -576 -96 -578 6 -6 876 76 883 82 2 3
79 432 169 953 182 1047 191 1125 159 1292 -43 228 -174 366 -393 415 -90 20
-296 20 -408 0z"/>
<path d="M10325 9067 c-231 -21 -421 -40 -421 -41 -1 0 -70 -397 -154 -881
-83 -484 -160 -903 -170 -932 -57 -161 -207 -285 -364 -300 -87 -8 -146 14
-178 65 -44 70 -37 130 131 1100 85 486 151 885 148 888 -5 5 -877 -72 -882
-78 -3 -3 -307 -1767 -325 -1878 -14 -95 -12 -294 5 -375 43 -205 170 -334
385 -392 90 -24 350 -24 473 0 219 44 432 155 585 306 34 33 68 61 75 61 7 0
42 -21 78 -46 81 -57 137 -86 225 -116 63 -21 86 -23 246 -22 116 1 182 5 191
13 10 8 16 53 21 159 13 281 28 383 207 1422 98 575 182 1055 184 1068 4 18 1
22 -17 21 -13 -1 -212 -20 -443 -42z"/>
<path d="M7270 8860 c-403 -49 -799 -258 -1072 -566 -304 -345 -491 -859 -491
-1354 0 -369 112 -622 342 -774 149 -99 285 -135 531 -143 336 -10 645 58 955
212 145 72 298 172 303 198 2 9 -13 52 -34 94 -49 102 -119 172 -221 221 -75
36 -82 37 -188 37 -86 0 -125 -5 -178 -23 -107 -34 -233 -48 -313 -33 -122 22
-188 71 -239 174 -56 115 -67 238 -40 439 39 299 141 543 286 686 141 140 347
189 492 117 61 -31 145 -110 189 -177 16 -27 34 -48 39 -48 5 0 145 111 311
246 167 136 304 248 305 248 9 7 -84 142 -139 201 -110 118 -247 193 -420 231
-87 19 -313 26 -418 14z"/>
<path d="M4730 8619 c-683 -37 -1237 -397 -1540 -999 -135 -269 -227 -619
-249 -948 -34 -514 120 -815 464 -908 33 -9 119 -18 190 -21 214 -9 385 23
554 103 121 57 198 113 294 213 42 44 79 81 82 81 3 0 38 -27 78 -61 128 -108
243 -152 392 -152 94 0 199 21 270 52 l42 19 6 173 c8 244 39 464 177 1259
176 1015 184 1069 178 1075 -12 13 -242 65 -373 85 -77 12 -194 23 -260 26
-66 3 -133 6 -150 7 -16 2 -86 0 -155 -4z m-67 -628 c26 -4 49 -10 51 -12 2
-2 -47 -297 -109 -654 -122 -705 -123 -708 -202 -796 -82 -90 -190 -139 -309
-141 -126 -2 -203 56 -242 181 -25 81 -22 316 6 481 93 549 293 876 572 936
64 14 164 16 233 5z"/>
<path d="M14736 6264 c-124 -37 -239 -55 -408 -61 l-158 -6 -56 -106 c-197
-373 -431 -687 -754 -1012 -247 -248 -454 -419 -735 -606 -567 -378 -1201
-639 -1897 -782 -614 -127 -1318 -149 -1933 -60 -1305 187 -2460 839 -3163
1785 l-82 111 -85 -34 c-135 -54 -265 -84 -397 -90 l-117 -6 49 -98 c169 -335
404 -690 674 -1014 129 -154 445 -471 606 -607 859 -724 1844 -1136 2985
-1250 194 -19 758 -16 960 6 751 80 1381 269 2010 604 717 383 1350 942 1826
1614 313 441 573 971 734 1498 36 118 40 141 28 139 -5 -1 -43 -12 -87 -25z"/>
</g>
</svg>
